# xmcd CD database file
#
# Track frame offsets:
#	150
#	20606
#	39498
#	55410
#	76841
#	93493
#	121563
#	137532
#	158178
#	176900
#	196727
#
# Disc length: 2881 seconds
#
# Revision: 2
# Processed by: cddbd v1.5.1PL0 Copyright (c) Steve Scherf et al.
# Submitted via: CDex 1.51
#
DISCID=850b3f0b
DTITLE=Varios Artistas - Merengues Para La Historia Vol. IV
DYEAR=2004
DGENRE=Merengue
TTITLE0=Mujeres Vamono'
TTITLE1=Al Lado
TTITLE2=Se Fue La Luz
TTITLE3=Liborio
TTITLE4=Por El Mismo Camino
TTITLE5=El Serrucho/Diente de Oro/Abusadora
TTITLE6=Que Diran Los Vecinos?
TTITLE7=No Es Lo Mismo Ni Es Igual
TTITLE8=La Novia
TTITLE9=El Martiniqueño
TTITLE10=La Incodicional
EXTD=YEAR: 2004
EXTT0=
EXTT1=
EXTT2=
EXTT3=
EXTT4=
EXTT5=
EXTT6=
EXTT7=
EXTT8=
EXTT9=
EXTT10=
PLAYORDER=
